<?xml version="1.0" encoding="UTF-8" standalone="no"?>
<!-- Generator: Adobe Illustrator 21.0.0, SVG Export Plug-In . SVG Version: 6.00 Build 0)  -->

<svg
   xmlns:dc="http://purl.org/dc/elements/1.1/"
   xmlns:cc="http://creativecommons.org/ns#"
   xmlns:rdf="http://www.w3.org/1999/02/22-rdf-syntax-ns#"
   xmlns:svg="http://www.w3.org/2000/svg"
   xmlns="http://www.w3.org/2000/svg"
   xmlns:sodipodi="http://sodipodi.sourceforge.net/DTD/sodipodi-0.dtd"
   xmlns:inkscape="http://www.inkscape.org/namespaces/inkscape"
   version="1.1"
   id="Layer_1"
   x="0px"
   y="0px"
   viewBox="0 0 557.78595 384.96808"
   xml:space="preserve"
   sodipodi:docname="logo.svg"
   width="557.78595"
   height="384.96808"
   inkscape:version="0.92.4 5da689c313, 2019-01-14"><metadata
   id="metadata3898"><rdf:RDF><cc:Work
       rdf:about=""><dc:format>image/svg+xml</dc:format><dc:type
         rdf:resource="http://purl.org/dc/dcmitype/StillImage" /><dc:title></dc:title></cc:Work></rdf:RDF></metadata><defs
   id="defs3896" /><sodipodi:namedview
   pagecolor="#ffffff"
   bordercolor="#666666"
   borderopacity="1"
   objecttolerance="10"
   gridtolerance="10"
   guidetolerance="10"
   inkscape:pageopacity="0"
   inkscape:pageshadow="2"
   inkscape:window-width="1600"
   inkscape:window-height="829"
   id="namedview3894"
   showgrid="false"
   fit-margin-top="0"
   fit-margin-left="0"
   fit-margin-right="0"
   fit-margin-bottom="0"
   inkscape:zoom="0.60555556"
   inkscape:cx="279.39904"
   inkscape:cy="192.92541"
   inkscape:window-x="0"
   inkscape:window-y="24"
   inkscape:window-maximized="1"
   inkscape:current-layer="Layer_1" />
<style
   type="text/css"
   id="style3843">
	.st0{fill:none;stroke:#FDE600;stroke-width:0.7738;stroke-miterlimit:2.6131;}
	.st1{fill-rule:evenodd;clip-rule:evenodd;fill:#FDE600;}
	.st2{fill:#FDE600;}
</style>
<g
   id="g3853"
   transform="translate(-680.60096,-347.95732)">
	<path
   class="st0"
   d="m 765,447.4 v -9.3 l -35.1,8.6 c -13.1,3.2 -13.3,13.7 -9.4,17.5 l 1.6,1.6 c 1.4,1.4 1.7,2.8 -0.9,3.5 l -30.1,7.3 c -6,2.2 -10,7.2 -10.1,13 v 221.7 c -0.5,14.9 14.5,23.3 25.4,20.8 l 370.8,-90.3 5.4,18.8 8.3,-2 3.8,-15.1 3.8,13.2 8.3,-2 7.9,-31.6 -8.3,2 -3.8,15.1 -3.8,-13.2 -8.3,2 -3.8,15.1 -3.7,-13.1 -376.2,91.6 c -8.3,1.9 -16.3,-2.9 -15.8,-12.3 V 494.2 c 0,-4.8 2.2,-9 9.4,-10.7 l 24,-5.9 c 11.8,-2.9 14.3,-11.7 9.7,-15.9 l -1.5,-1.4 c -2,-1.8 -4.7,-3.9 0.7,-5.2 l 11.4,-2.8 v 20.3 l 8.9,-2.2 v -20.3 z"
   id="path3845"
   inkscape:connector-curvature="0"
   style="fill:none;stroke:#fde600;stroke-width:0.77380002;stroke-miterlimit:2.61310005" />
	<polygon
   class="st1"
   points="702.2,713.3 702.2,691.2 1217.7,565.7 1217.7,587.8 "
   id="polygon3847"
   style="clip-rule:evenodd;fill:#fde600;fill-rule:evenodd" />
	<polygon
   class="st1"
   points="701.2,518.3 701.2,496.2 1216.7,370.7 1216.7,392.8 "
   id="polygon3849"
   style="clip-rule:evenodd;fill:#fde600;fill-rule:evenodd" />
	<path
   class="st0"
   d="m 783.9,452.2 -6.2,1.5 2.9,-11.7 0.3,-0.1 z m -20.1,15.8 7.9,-31.5 16.7,-4.1 7.9,27.7 -9.5,2.3 -1.3,-4.6 -9.4,2.3 -1.3,5.2 z M 1159,619.5 v 5.2 l 5.6,-1.3 c 4.3,-1 4.8,-6.3 0.7,-5.4 z M 810,434 v 5.4 l 5.6,-1.3 c 4.3,-1 4.6,-6.5 0.6,-5.5 z m 365,195 13.8,-3.3 c 2.7,-0.6 2.3,-2.1 0.9,-3.5 l -1.6,-1.6 c -3.9,-3.8 -3.6,-14.3 9.4,-17.5 l 22.5,-5.5 c 9.1,-2.2 8.8,-8 8.8,-15.6 V 371 c 0,-9.3 -3.4,-15.4 -13.2,-13.1 l -390.9,95.2 c -2.6,0.6 -4.2,0.2 -7.1,-1.3 l -7.7,-4.2 v 9.1 l -9.9,2.4 v -29.6 l 19.6,-4.7 c 11.3,-2.7 11.2,13.4 4.8,17.2 -1.9,1.1 -0.9,2.3 1.5,1.7 l 388.7,-94.6 c 14.2,-3.5 23.3,5.5 23.4,19.1 v 220.2 c 0,6.8 -1.3,14.5 -12.2,17.2 l -24.9,6.1 c -5.3,1.3 -2.7,3.1 -0.7,4.9 l 1.5,1.4 c 4.7,4.2 2.2,13.1 -9.6,16 l -18.4,4.5 c -2.6,0.6 -4.2,0.1 -7.1,-1.5 l -7.7,-4.2 v 9.2 l -10,2.4 v -29.6 l 19.6,-4.8 c 11.3,-2.8 11.2,13.4 4.8,17.2 -1.7,1.2 -0.6,2.3 1.7,1.8 z m -41.2,8.2 -6.2,1.5 2.9,-11.7 0.3,-0.1 z m -20.1,15.9 7.9,-31.5 16.7,-4.1 7.9,27.7 -9.5,2.3 -1.3,-4.6 -9.4,2.3 -1.3,5.2 z"
   id="path3851"
   inkscape:connector-curvature="0"
   style="fill:none;stroke:#fde600;stroke-width:0.77380002;stroke-miterlimit:2.61310005" />
</g>
<g
   id="g3891"
   transform="translate(-680.60096,-347.95732)">
	<path
   class="st2"
   d="m 730.8,523.3 c 9.1,-2.2 16.8,-0.3 23.2,5.7 6.4,6 9.7,14.4 9.7,25.1 0,10.8 -3.2,20.7 -9.6,29.9 -6.4,9.1 -14.1,14.8 -23.2,17 l -28.7,7 v -77.8 z m 0,56.2 c 4,-1 7.5,-3.5 10.3,-7.6 2.9,-4.1 4.3,-8.5 4.3,-13.3 0,-4.8 -1.4,-8.5 -4.2,-11.2 -2.8,-2.7 -6.3,-3.5 -10.4,-2.5 l -10.5,2.6 v 34.6 z"
   id="path3855"
   inkscape:connector-curvature="0"
   style="fill:#fde600" />
	<path
   class="st2"
   d="m 813.5,503.2 v 21.6 l -29.3,7.1 v 6.5 l 29.3,-7.1 v 21.6 l -29.3,7.1 v 6.4 l 29.3,-7.1 v 21.6 L 766,592.5 v -77.8 z"
   id="path3857"
   inkscape:connector-curvature="0"
   style="fill:#fde600" />
	<path
   class="st2"
   d="m 863.8,490.9 25.1,71.6 -21,5.1 -2.5,-7.1 -25.3,6.2 -2.4,8.3 -21.9,5.3 26,-84.1 z m -4.8,51 -6.2,-17.9 -6.2,20.9 z"
   id="path3859"
   inkscape:connector-curvature="0"
   style="fill:#fde600" />
	<path
   class="st2"
   d="m 933.4,474 v 28.1 l 19.5,-4.8 v -28.1 l 18.2,-4.4 v 77.8 L 953,547 v -28.1 l -19.5,4.8 v 28.1 l -18.3,4.4 V 500 l -4.7,1.1 v 56.2 l -18.3,4.4 v -56.2 l -16.9,4.1 V 488 Z"
   id="path3861"
   inkscape:connector-curvature="0"
   style="fill:#fde600" />
	<path
   class="st2"
   d="m 1079.1,438.5 v 21.6 l -16.9,4.1 v 56.2 l -18.3,4.4 v -56.2 l -32.9,8 c 0.2,0.2 7.2,7.2 21.3,21.1 1.9,2.9 2.9,6.1 2.9,9.8 0,5.2 -1.5,10.1 -4.6,14.7 -3.1,4.6 -6.7,7.4 -11,8.5 l -29.6,7.2 v -21.6 l 24.4,-6 -21.2,-21 c -1.9,-2.3 -2.9,-5.6 -2.9,-9.9 0,-5.3 1.5,-10.2 4.5,-14.7 3,-4.6 6.7,-7.4 11,-8.5 z"
   id="path3863"
   inkscape:connector-curvature="0"
   style="fill:#fde600" />
	<path
   class="st2"
   d="m 1114,430 25.1,71.6 -21,5.1 -2.5,-7.1 -25.3,6.2 -2.4,8.3 -21.9,5.3 26,-84.1 z m -4.8,50.9 -6.2,-17.9 -6.2,20.9 z"
   id="path3865"
   inkscape:connector-curvature="0"
   style="fill:#fde600" />
	<path
   class="st2"
   d="m 1196.6,438.8 c 0,5.8 -1.3,11.4 -4,16.9 -2.6,5.3 -6.1,9.9 -10.4,13.8 l 35.8,-8.7 v 21.6 l -47.4,11.5 -10.8,-11.3 v 13.9 l -18.3,4.4 v -77.8 l 31,-7.6 c 6.7,-1.6 12.4,-0.1 17.1,4.4 4.6,4.7 7,10.9 7,18.9 z m -25.8,12.7 c 1.2,-0.3 2.3,-1.1 3.2,-2.3 0.9,-1.3 1.3,-2.6 1.3,-4.1 0,-1.5 -0.4,-2.6 -1.3,-3.4 -0.9,-0.8 -1.9,-1.1 -3.2,-0.8 l -11.1,2.7 v 10.6 z"
   id="path3867"
   inkscape:connector-curvature="0"
   style="fill:#fde600" />
	<path
   class="st2"
   d="m 724.6,613.6 c 7.1,-1.7 13.1,-0.2 18.2,4.5 5,4.7 7.6,11.3 7.6,19.7 0,8.4 -2.5,16.2 -7.5,23.4 -5,7.2 -11.1,11.6 -18.1,13.3 l -22.5,5.5 v -60.8 z m 0,43.9 c 3.2,-0.8 5.9,-2.7 8.1,-5.9 2.2,-3.2 3.4,-6.6 3.4,-10.4 0,-3.7 -1.1,-6.7 -3.3,-8.8 -2.2,-2.1 -4.9,-2.7 -8.2,-2 l -8.2,2 v 27 z"
   id="path3869"
   inkscape:connector-curvature="0"
   style="fill:#fde600" />
	<path
   class="st2"
   d="m 781.8,599.7 19.7,56 -16.4,4 -2,-5.5 -19.8,4.8 -1.9,6.5 -17.1,4.2 20.3,-65.8 z m -3.7,39.8 -4.9,-14 -4.8,16.4 z"
   id="path3871"
   inkscape:connector-curvature="0"
   style="fill:#fde600" />
	<path
   class="st2"
   d="m 831.5,587.6 v 16.9 l -13.2,3.2 v 43.9 l -14.3,3.5 v -43.9 l -13.2,3.2 v -16.9 z"
   id="path3873"
   inkscape:connector-curvature="0"
   style="fill:#fde600" />
	<path
   class="st2"
   d="m 858.4,581 19.7,56 -16.4,4 -2,-5.5 -19.8,4.8 -1.9,6.5 -17.1,4.2 20.3,-65.8 z m -3.7,39.9 -4.9,-14 -4.8,16.4 z"
   id="path3875"
   inkscape:connector-curvature="0"
   style="fill:#fde600" />
	<path
   class="st2"
   d="m 904.1,569.9 c 6.8,-1.7 11.9,-1.8 15.2,-0.3 4.4,2 6.6,6.9 6.6,14.6 0,3.7 -0.7,7.3 -2.2,10.9 1.5,2.5 2.2,6 2.2,10.5 0,5.4 -1.4,10.4 -4.3,14.9 -2.9,4.6 -6.3,7.4 -10.4,8.4 l -31.3,7.6 v -60.8 z m 5.5,20.2 c 0.4,-0.6 0.5,-1.3 0.5,-2 0,-0.8 -0.2,-1.4 -0.6,-1.9 -0.4,-0.5 -0.9,-0.6 -1.5,-0.5 l -13.9,3.4 v 5.7 l 13.9,-3.4 c 0.6,-0.2 1,-0.2 1,-0.2 0,0 0.2,-0.4 0.6,-1.1 z m -1.6,22.7 c 0.6,-0.1 1.1,-0.5 1.5,-1.2 0.4,-0.7 0.6,-1.4 0.6,-2.2 0,-0.6 -0.2,-1.2 -0.5,-1.6 -0.4,-0.7 -1,-0.9 -1.7,-0.7 l -13.9,3.4 v 5.7 z"
   id="path3877"
   inkscape:connector-curvature="0"
   style="fill:#fde600" />
	<path
   class="st2"
   d="m 960.7,556.1 19.7,56 -16.4,4 -2,-5.5 -19.8,4.8 -1.9,6.5 -17.1,4.2 20.3,-65.8 z m -3.8,39.9 -4.9,-14 -4.8,16.4 z"
   id="path3879"
   inkscape:connector-curvature="0"
   style="fill:#fde600" />
	<path
   class="st2"
   d="m 998.6,563.7 c 0.1,0.1 5.7,5.6 16.6,16.5 1.5,2.2 2.2,4.8 2.2,7.7 0,4.1 -1.2,7.9 -3.6,11.5 -2.4,3.6 -5.3,5.8 -8.6,6.6 l -26.4,6.4 v -16.9 l 22.3,-5.4 -16.6,-16.4 c -1.5,-1.8 -2.3,-4.4 -2.3,-7.7 0,-4.1 1.2,-8 3.5,-11.5 2.4,-3.6 5.3,-5.8 8.6,-6.6 l 25.1,-6.1 v 16.9 z"
   id="path3881"
   inkscape:connector-curvature="0"
   style="fill:#fde600" />
	<path
   class="st2"
   d="m 1056.4,532.8 v 16.9 l -22.9,5.6 v 5.1 l 22.9,-5.6 v 16.9 l -22.9,5.6 v 5 l 22.9,-5.6 v 16.9 l -37.2,9.1 v -60.8 z"
   id="path3883"
   inkscape:connector-curvature="0"
   style="fill:#fde600" />
	<path
   class="st2"
   d="m 1108.7,520 19.7,56 -16.4,4 -2,-5.5 -19.8,4.8 -1.9,6.5 -17.1,4.2 20.3,-65.8 z m -3.7,39.9 -4.9,-14 -4.8,16.4 z"
   id="path3885"
   inkscape:connector-curvature="0"
   style="fill:#fde600" />
	<path
   class="st2"
   d="m 1154.4,508.9 c 5.2,-1.2 9.7,-0.1 13.4,3.5 3.7,3.5 5.5,8.3 5.5,14.6 0,6.2 -1.8,12 -5.5,17.3 -3.7,5.3 -8.1,8.6 -13.4,9.9 l -10,2.4 v 15.6 l -14.3,3.5 v -60.8 z m -1.3,28 c 1,-0.2 1.8,-0.8 2.5,-1.8 0.7,-1 1,-2 1,-3.2 0,-1.1 -0.3,-2 -1,-2.7 -0.7,-0.6 -1.5,-0.8 -2.5,-0.6 l -8.7,2.1 v 8.3 z"
   id="path3887"
   inkscape:connector-curvature="0"
   style="fill:#fde600" />
	<path
   class="st2"
   d="m 1199.3,497.9 c 5.2,-1.2 9.7,-0.1 13.4,3.5 3.7,3.5 5.5,8.3 5.5,14.6 0,6.2 -1.8,12 -5.5,17.3 -3.7,5.3 -8.1,8.6 -13.4,9.9 l -10,2.4 v 15.6 l -14.3,3.5 v -60.8 z m -1.2,28 c 1,-0.2 1.8,-0.8 2.5,-1.8 0.7,-1 1,-2 1,-3.2 0,-1.1 -0.3,-2 -1,-2.7 -0.7,-0.6 -1.5,-0.8 -2.5,-0.6 l -8.7,2.1 v 8.3 z"
   id="path3889"
   inkscape:connector-curvature="0"
   style="fill:#fde600" />
</g>
</svg>